<svg width="40" height="40" viewBox="0 0 40 40" fill="none" xmlns="http://www.w3.org/2000/svg">
<path d="M17.7763 12.55V1.37738" stroke="#03045E" stroke-miterlimit="10" stroke-linejoin="round"/>
<path d="M22.3694 2.94267C22.5385 2.95115 22.7064 2.95184 22.8724 2.94267C23.4172 2.91254 23.9401 2.77601 24.4107 2.45938C24.6118 2.32415 24.8826 2.4722 24.8826 2.71454V7.25134C24.8826 7.33634 24.8463 7.41673 24.7849 7.47548C23.3962 8.80462 21.4016 8.13548 19.7611 7.7904C19.1027 7.65188 18.3915 7.58298 17.7763 7.85157V2.53345C18.3915 2.26478 19.1027 2.33376 19.7611 2.47228" fill="#A2D2FF"/>
<path d="M22.3694 2.94267C22.5385 2.95115 22.7064 2.95184 22.8724 2.94267M22.8724 2.94267C23.4172 2.91254 23.9401 2.77601 24.4107 2.45938C24.6118 2.32415 24.8826 2.4722 24.8826 2.71454V7.25134C24.8826 7.33634 24.8463 7.41673 24.7849 7.47548C23.3962 8.80462 21.4016 8.13548 19.7611 7.7904C19.1027 7.65188 18.3915 7.58298 17.7763 7.85157V2.53345C18.3915 2.26478 19.1027 2.33376 19.7611 2.47228C20.2854 2.65986 21.6417 3.01656 22.8724 2.94267Z" stroke="#03045E" stroke-miterlimit="10" stroke-linejoin="round"/>
<path d="M25.5731 25.2647L18.2791 12.9705C18.0526 12.5887 17.5001 12.5887 17.2736 12.9705L6.14191 31.7333" stroke="#03045E" stroke-miterlimit="10" stroke-linejoin="round"/>
<path d="M2.0546 38.6227H33.4981" stroke="#03045E" stroke-miterlimit="10" stroke-linejoin="round"/>
<path d="M23.181 21.2329L21.2995 20.2856C21.0312 20.1506 20.7148 20.1506 20.4465 20.2856L18.2029 21.4153C17.9346 21.5504 17.6181 21.5504 17.3498 21.4153L15.1062 20.2856C14.8379 20.1506 14.5215 20.1506 14.2531 20.2856L12.3717 21.2329L17.2736 12.9706C17.5001 12.5888 18.0526 12.5888 18.2791 12.9706L23.181 21.2329Z" fill="#A2D2FF" stroke="#03045E" stroke-miterlimit="10" stroke-linejoin="round"/>
<path d="M33.5388 31.1952L28.2995 22.3641C28.073 21.9823 27.5205 21.9823 27.294 22.3641L17.648 38.6227H37.9454L32.9187 30.15" stroke="#03045E" stroke-miterlimit="10" stroke-linejoin="round"/>
<path d="M31.2856 27.3973L30.071 26.7857C29.8978 26.6986 29.6936 26.6986 29.5204 26.7858L28.072 27.515C27.8988 27.6022 27.6946 27.6022 27.5214 27.515L26.0731 26.7858C25.8999 26.6986 25.6956 26.6986 25.5224 26.7857L24.308 27.3973L27.294 22.3642C27.5205 21.9824 28.073 21.9824 28.2995 22.3642L31.2856 27.3973Z" fill="#A2D2FF" stroke="#03045E" stroke-miterlimit="10" stroke-linejoin="round"/>
<path d="M0.574493 38.6227H39.4255" stroke="#03045E" stroke-miterlimit="10" stroke-linejoin="round"/>
<path d="M8.86319 38.6227C10.124 38.6227 11.1304 37.5337 10.9931 36.2449C10.8885 35.2628 10.1036 34.4696 9.1228 34.3531C8.95303 34.333 8.7867 34.3329 8.62584 34.3507C8.38436 34.3776 8.16928 34.1942 8.17124 33.9512C8.17194 33.8565 8.16655 33.7602 8.15452 33.6629C8.0335 32.6857 7.2392 31.9058 6.25983 31.8033C4.97295 31.6686 3.88631 32.6742 3.88631 33.9337V33.9394C3.88694 34.1871 3.67764 34.378 3.43147 34.3507C3.27061 34.3329 3.10436 34.333 2.93467 34.3531C1.95381 34.4697 1.16889 35.2631 1.06444 36.2453C0.927329 37.5338 1.93374 38.6227 3.19436 38.6227H8.86319Z" fill="#A2D2FF" stroke="#03045E" stroke-miterlimit="10" stroke-linejoin="round"/>
<path d="M32.3092 38.6227C33.256 38.6227 34.0181 37.8317 33.9709 36.8745C33.9294 36.0341 33.2441 35.3448 32.4039 35.2978C32.3095 35.2925 32.2168 35.2952 32.1263 35.3052C31.9352 35.3262 31.7712 35.1798 31.772 34.9876C31.772 34.9524 31.771 34.9169 31.7689 34.8812C31.7194 34.0428 31.0305 33.3607 30.1917 33.3198C29.2349 33.2729 28.4444 34.0348 28.4444 34.9815V34.9858C28.4449 35.1787 28.2816 35.3262 28.0898 35.3052C27.9993 35.2952 27.9067 35.2925 27.8123 35.2978C26.9721 35.3448 26.2868 36.0342 26.2455 36.8748C26.1983 37.8319 26.9604 38.6227 27.9071 38.6227H32.3092Z" fill="#A2D2FF" stroke="#03045E" stroke-miterlimit="10" stroke-linejoin="round"/>
</svg>
