<svg width="40" height="40" viewBox="0 0 40 40" fill="none" xmlns="http://www.w3.org/2000/svg">
<g clip-path="url(#clip0_17001_1430)">
<path d="M12.3131 22.6987L17.0446 14.9791H22.9554L37.5729 38.8281H2.42711L9.70164 26.9595C10.1221 27.2771 10.6462 27.466 11.2135 27.466C12.5993 27.466 13.7239 26.3413 13.7239 24.9556C13.724 23.9645 13.1484 23.1066 12.3131 22.6987Z" stroke="#03045E" stroke-miterlimit="10" stroke-linejoin="round" fill="#fff"/>

<path d="M17 15L12.35 22.6L15 25L17.35 22.6L20.05 25L22.5 22.6L25.05 25L27.65 22.6L22.95 15H17Z" fill="#A2D2FF"/>
<path d="M1.17188 38.8281H38.8281" stroke="#03045E" stroke-miterlimit="10" stroke-linejoin="round" />

<path d="M12.4688 22.4452L14.9791 24.9556L17.4896 22.4452L20 24.9556L22.5104 22.4452L25.0209 24.9556L27.5312 22.4452" stroke="#03045E" stroke-miterlimit="10" stroke-linejoin="round" />
<path d="M28.998 7.45672C29.5126 5.99 30.9103 4.9375 32.5521 4.9375C34.1939 4.9375 35.5916 5.99 36.1062 7.45672C36.1759 7.45109 36.2468 7.44789 36.3177 7.44789C37.7035 7.44789 38.8281 8.57258 38.8281 9.95828C38.8281 11.344 37.7034 12.4688 36.3177 12.4688C35.6763 12.4688 35.0914 12.2277 34.647 11.8317C34.0483 12.2341 33.3272 12.4688 32.5521 12.4688C31.777 12.4688 31.0559 12.2341 30.4572 11.8317C30.0128 12.2277 29.4279 12.4688 28.7865 12.4688C27.4007 12.4688 26.2761 11.3441 26.2761 9.95836C26.2761 8.57266 27.4008 7.44797 28.7865 7.44797C28.8573 7.44789 28.9283 7.45109 28.998 7.45672Z" fill="#A2D2FF" stroke="#03045E" stroke-miterlimit="10" stroke-linejoin="round"/>
<path d="M3.89375 22.4539C4.40836 20.9872 5.80609 19.9347 7.44789 19.9347C9.08969 19.9347 10.4874 20.9872 11.002 22.4539C11.0716 22.4483 11.1426 22.4451 11.2135 22.4451C12.5993 22.4451 13.7239 23.5698 13.7239 24.9555C13.7239 26.3413 12.5992 27.4659 11.2135 27.4659C10.5721 27.4659 9.98719 27.2248 9.54281 26.8288C8.94406 27.2311 8.22297 27.4659 7.44789 27.4659C6.67281 27.4659 5.95172 27.2312 5.35297 26.8288C4.90859 27.2248 4.32367 27.4659 3.68227 27.4659C2.29656 27.466 1.17188 26.3413 1.17188 24.9556C1.17188 23.5698 2.29656 22.4452 3.68227 22.4452C3.7532 22.4452 3.82414 22.4483 3.89375 22.4539Z" fill="#A2D2FF" stroke="#03045E" stroke-miterlimit="10" stroke-linejoin="round"/>
<path d="M7.11594 19.9491C6.51969 18.4065 6.19273 16.7308 6.19273 14.9791C6.19273 7.35883 12.3796 1.17188 20 1.17188C24.0625 1.17188 27.7177 2.93039 30.2456 5.72703C29.6783 6.16758 29.2402 6.76633 28.9979 7.45672C28.9283 7.45109 28.8573 7.44789 28.7864 7.44789C27.4006 7.44789 26.276 8.57258 26.276 9.95828C26.276 11.344 27.4007 12.4687 28.7864 12.4687C29.4278 12.4687 30.0127 12.2277 30.4571 11.8316C31.0559 12.234 31.777 12.4687 32.552 12.4687C32.8984 12.4687 33.2348 12.4216 33.5537 12.3337C33.72 13.1904 33.8072 14.0747 33.8072 14.9791C33.8072 19.0466 32.0442 22.7061 29.2407 25.2348L22.9552 14.9791H17.0445L12.313 22.6986C11.9809 22.536 11.6075 22.4451 11.2134 22.4451C11.1424 22.4451 11.0715 22.4482 11.0019 22.4539C10.4873 20.9872 9.08953 19.9347 7.44773 19.9347C7.33625 19.9348 7.22516 19.9398 7.11594 19.9491Z" stroke="#03045E" stroke-miterlimit="10" stroke-linejoin="round" fill="#fff"/>
<path d="M12.4688 38.8281L14.3089 31.8222" stroke="#03045E" stroke-miterlimit="10" stroke-linejoin="round" />
<path d="M27.5312 38.8281L25.6911 31.8222" stroke="#03045E" stroke-miterlimit="10" stroke-linejoin="round" />
<path d="M1.17188 7.16503L1.79945 5.56503" stroke="#03045E" stroke-miterlimit="10" stroke-linejoin="round" />
<path d="M6.82054 2.77188L6.19296 1.17188" stroke="#03045E" stroke-miterlimit="10" stroke-linejoin="round" />
<path d="M38.8284 31.0141L38.2008 29.4141" stroke="#03045E" stroke-miterlimit="10" stroke-linejoin="round" />
<path d="M36.318 24.7381L36.9455 23.1381" stroke="#03045E" stroke-miterlimit="10" stroke-linejoin="round" />
<path d="M38.2008 2.77188L38.8284 1.17188" stroke="#03045E" stroke-miterlimit="10" stroke-linejoin="round" />
</g>
<defs>
<clipPath id="clip0_17001_1430">
<rect width="40" height="40" fill="white"/>
</clipPath>
</defs>
</svg>
