<svg width="40" height="40" viewBox="0 0 40 40" fill="none" xmlns="http://www.w3.org/2000/svg">
<g clip-path="url(#clip0_17001_1406)">
<path d="M16.45 18.15L10.9 25.85L14.25 29.15L16.45 27.55L18.65 29.15L21.9 25.85L16.45 18.15Z" fill="#A2D2FF"/>
<path d="M25.0884 29.9367L16.4285 18.2646L1.17186 38.8282H18.778" stroke="#03045E" stroke-miterlimit="10" stroke-linejoin="round"/>
<path d="M14.6652 5.52452C14.6652 7.92851 12.7165 9.87726 10.3125 9.87726C7.90859 9.87726 5.95984 7.92851 5.95984 5.52452C5.95984 3.12062 7.90859 1.17187 10.3125 1.17187C12.7165 1.17187 14.6652 3.12062 14.6652 5.52452Z" stroke="#03045E" stroke-miterlimit="10" stroke-linejoin="round"/>
<path d="M28.803 24.703L18.7779 38.8281H38.8281L28.803 24.703Z" stroke="#03045E" stroke-miterlimit="10" stroke-linejoin="round"/>
<path d="M34.9383 12.2803C34.8983 12.2803 34.8585 12.2816 34.819 12.2832C34.7583 9.39721 32.4015 7.07589 29.5009 7.07589C26.6004 7.07589 24.2435 9.39721 24.183 12.2832C24.1434 12.2816 24.1036 12.2803 24.0636 12.2803C22.5621 12.2803 21.3448 13.4974 21.3448 14.9989C21.3448 16.5004 22.5621 17.7177 24.0636 17.7177H34.9383C36.4398 17.7177 37.657 16.5004 37.657 14.9989C37.657 13.4974 36.4398 12.2803 34.9383 12.2803Z" fill="#A2D2FF" stroke="#03045E" stroke-miterlimit="10" stroke-linejoin="round"/>
<path d="M10.8407 25.796L14.188 29.1435L16.4285 27.5279L18.6691 29.1435L22.0165 25.796" stroke="#03045E" stroke-miterlimit="10" stroke-linejoin="round"/>
</g>
<defs>
<clipPath id="clip0_17001_1406">
<rect width="40" height="40" fill="white"/>
</clipPath>
</defs>
</svg>
