<svg width="40" height="40" viewBox="0 0 40 40" fill="none" xmlns="http://www.w3.org/2000/svg">
<g clip-path="url(#clip0_17001_1443)">
<path d="M12.8 31.5H5.75L9.25 24.45L12.8 31.5Z" fill="#A2D2FF"/>
<path d="M34.35 31.75H27.3L30.8 24.7L34.35 31.75Z" fill="#A2D2FF"/>
<path d="M24.3 24.6H15.9L20.0702 16.3L24.3 24.6Z" fill="#A2D2FF"/>
<path d="M16.648 39.0773L9.29685 24.375C9.04873 24.8713 2.06787 38.5032 1.90388 38.8282H38.096C37.9316 38.5025 31.1076 24.8713 30.8594 24.375L23.5083 39.0773" stroke="#03045E" stroke-miterlimit="10" stroke-linejoin="round"/>
<path d="M5.78125 31.5625H12.8906L20.0781 16.1719L27.2656 31.5625H34.4531" stroke="#03045E" stroke-miterlimit="10" stroke-linejoin="round"/>
<path d="M16.2498 24.375H23.6998" stroke="#03045E" stroke-miterlimit="10" stroke-linejoin="round"/>
<path d="M29.4531 4.6875C29.4531 6.62914 27.8791 8.20312 25.9375 8.20312C23.9959 8.20312 22.4219 6.62914 22.4219 4.6875C22.4219 2.74586 23.9959 1.17188 25.9375 1.17188C27.8791 1.17188 29.4531 2.74586 29.4531 4.6875Z" stroke="#03045E" stroke-miterlimit="10" stroke-linejoin="round"/>
<path d="M9.20816 17.3438H3.51566C2.2212 17.3438 1.17191 16.2944 1.17191 15C1.17191 13.7056 2.2212 12.6562 3.51566 12.6562C4.81003 12.6562 5.85941 13.7056 5.85941 15V13.8281C5.85941 11.8865 7.43339 10.3125 9.37503 10.3125C11.3167 10.3125 12.8907 11.8865 12.8907 13.8281C12.8907 15.7698 11.3167 17.3438 9.37503 17.3438H9.20816Z" fill="#A2D2FF"/>
<path d="M5.85941 15C5.85941 13.7056 4.81003 12.6562 3.51566 12.6562C2.2212 12.6562 1.17191 13.7056 1.17191 15C1.17191 16.2944 2.2212 17.3438 3.51566 17.3438H9.20816H9.37503C11.3167 17.3438 12.8907 15.7698 12.8907 13.8281C12.8907 11.8865 11.3167 10.3125 9.37503 10.3125C7.43339 10.3125 5.85941 11.8865 5.85941 13.8281V15ZM5.85941 15V15.35" stroke="#03045E" stroke-miterlimit="10" stroke-linejoin="round"/>
<path d="M35.1456 17.3438H29.4531C28.1587 17.3438 27.1094 16.2944 27.1094 15C27.1094 13.7056 28.1587 12.6562 29.4531 12.6562C30.7475 12.6562 31.7969 13.7056 31.7969 15V13.8281C31.7969 11.8865 33.3709 10.3125 35.3125 10.3125C37.2541 10.3125 38.8281 11.8865 38.8281 13.8281C38.8281 15.7698 37.2541 17.3438 35.3125 17.3438H35.1456Z" fill="#A2D2FF"/>
<path d="M31.7969 15C31.7969 13.7056 30.7475 12.6562 29.4531 12.6562C28.1587 12.6562 27.1094 13.7056 27.1094 15C27.1094 16.2944 28.1587 17.3438 29.4531 17.3438H35.1456H35.3125C37.2541 17.3438 38.8281 15.7698 38.8281 13.8281C38.8281 11.8865 37.2541 10.3125 35.3125 10.3125C33.3709 10.3125 31.7969 11.8865 31.7969 13.8281V15ZM31.7969 15V15.4" stroke="#03045E" stroke-miterlimit="10" stroke-linejoin="round"/>
</g>
<defs>
<clipPath id="clip0_17001_1443">
<rect width="40" height="40" fill="white"/>
</clipPath>
</defs>
</svg>
