<svg width="40" height="40" viewBox="0 0 40 40" fill="none" xmlns="http://www.w3.org/2000/svg">
<g clip-path="url(#clip0_17001_1454)">
<path d="M12.5 25.25C11.22 25.41 9.70001 23.6833 9.10001 22.8C10.35 20.2833 12.64 15.5599 13.8 13.3999C15.25 10.6999 17.75 11.4001 18.9 13.9C19.6926 15.623 22.2667 20.5333 23.4 22.8C22.9 23.6167 21.53 25.25 20.05 25.25C18.2 25.25 18.1 23.45 16.2 23.5C14.3 23.55 14.1 25.05 12.5 25.25Z" fill="#A2D2FF"/>
<path d="M13.9876 13.1936C14.4143 12.3432 15.2804 11.806 16.2344 11.806C17.1884 11.806 18.0545 12.3432 18.4812 13.1936C22.6799 21.591 31.2969 38.8282 31.2969 38.8282H1.17188C1.17188 38.8282 9.78883 21.591 13.9876 13.1936Z" stroke="#03045E" stroke-miterlimit="10" stroke-linejoin="round"/>
<path d="M25.912 21.9801C26.3388 21.1297 27.2049 20.5924 28.1588 20.5924C29.1128 20.5924 29.9789 21.1297 30.4056 21.9801C33.5312 28.2399 38.8281 38.8281 38.8281 38.8281H31.2969L24.3932 25.0208C24.3932 25.0208 25.1087 23.5931 25.912 21.9801Z" stroke="#03045E" stroke-miterlimit="10" stroke-linejoin="round"/>
<path d="M9.12364 22.929C9.12364 22.929 9.88927 23.6991 10.6926 24.5012C11.6717 25.4815 13.2658 25.4815 14.2448 24.5012C14.3139 24.429 14.3893 24.3575 14.4583 24.2853C15.4373 23.305 17.0315 23.305 18.0104 24.2853C18.0795 24.3575 18.1549 24.429 18.2239 24.5012C19.2029 25.4815 20.7971 25.4815 21.7761 24.5012C22.5794 23.6991 23.3451 22.929 23.3451 22.929" stroke="#03045E" stroke-miterlimit="10" stroke-linejoin="round"/>
<path d="M26.3199 6.1927C26.2886 5.98747 26.276 5.77786 26.276 5.56512C26.276 3.14067 28.2467 1.17184 30.6693 1.17184C32.9036 1.17184 34.755 2.84567 35.0248 5.00778C35.2383 4.962 35.4641 4.93755 35.6901 4.93755C37.4223 4.93755 38.8281 6.34333 38.8281 8.07552C38.8281 9.8077 37.4223 11.2136 35.6901 11.2136H25.0209H25.002C23.6276 11.2047 22.5104 10.0832 22.5104 8.70309C22.5104 7.31739 23.6338 6.1927 25.0209 6.1927H26.3199Z" fill="#A2D2FF" stroke="#03045E" stroke-miterlimit="10" stroke-linejoin="round"/>
</g>
<defs>
<clipPath id="clip0_17001_1454">
<rect width="40" height="40" fill="white"/>
</clipPath>
</defs>
</svg>
