<svg width="40" height="40" viewBox="0 0 40 40" fill="none" xmlns="http://www.w3.org/2000/svg">
<path d="M27.0308 10.5471C29.6196 10.5471 31.7182 8.44845 31.7182 5.85967C31.7182 3.27088 29.6196 1.17225 27.0308 1.17225C24.442 1.17225 22.3434 3.27088 22.3434 5.85967C22.3434 8.44845 24.442 10.5471 27.0308 10.5471Z" fill="#A2D2FF" stroke="#03045E" stroke-miterlimit="10" stroke-linejoin="round"/>
<path d="M11.6011 25.9374H10.4293C10.1578 24.6002 8.97571 23.5937 7.55839 23.5937C6.14107 23.5937 4.9589 24.6002 4.6875 25.9374H3.51557C2.22114 25.9374 1.17186 26.9867 1.17186 28.2811C1.17186 29.5756 2.22114 30.6249 3.51557 30.6249H11.6011C12.8956 30.6249 13.9448 29.5756 13.9448 28.2811C13.9448 26.9867 12.8955 25.9374 11.6011 25.9374Z" fill="#A2D2FF" stroke="#03045E" stroke-miterlimit="10" stroke-linejoin="round"/>
<path d="M25.2878 28.4332L28.5244 17.7345H32.04L38.4212 38.8278H3.92181L6.40341 30.6248" stroke="#03045E" stroke-miterlimit="10" stroke-linejoin="round"/>
<path d="M8.48517 23.7434L9.59406 20.0782H13.1096L15.5912 11.8752H20.2786L25.2878 28.4332H29.6963L32.8408 38.8278" stroke="#03045E" stroke-miterlimit="10" stroke-linejoin="round"/>
<path d="M12.8904 7.03158C12.8904 5.08994 14.4644 3.51595 16.406 3.51595" stroke="#03045E" stroke-miterlimit="10" stroke-linejoin="round"/>
<path d="M12.8905 7.03158C12.8905 5.08994 11.3165 3.51595 9.37483 3.51595" stroke="#03045E" stroke-miterlimit="10" stroke-linejoin="round"/>
<path d="M5.85927 11.719C5.85927 9.77735 7.43325 8.20337 9.37489 8.20337" stroke="#03045E" stroke-miterlimit="10" stroke-linejoin="round"/>
<path d="M5.85933 11.719C5.85933 9.77735 4.28534 8.20337 2.3437 8.20337" stroke="#03045E" stroke-miterlimit="10" stroke-linejoin="round"/>
</svg>
