<svg width="40" height="40" viewBox="0 0 40 40" fill="none" xmlns="http://www.w3.org/2000/svg">
<path d="M19.9 14.5L11.55 9.75001L14.4 8.00001L17.1 5.10001L19.9 5.80001L23 5.10001L25.8 7.05001L29.6 8.30001L19.9 14.5Z" fill="#A2D2FF"/>
<path d="M34.5822 16.4783L29.6065 8.37832L25.9423 7.09175L22.9981 5.13332L20.0007 5.7709L17.1072 5.00425L14.1861 8.10222L11.4554 9.82629L4.69193 18.2003" stroke="#03045E" stroke-miterlimit="10" stroke-linejoin="round"/>
<path d="M38.8256 30.4601V15.9699C35.0735 15.9699 31.4155 17.1448 28.3653 19.3299L12.8275 30.4601" stroke="#03045E" stroke-miterlimit="10" stroke-linejoin="round"/>
<path d="M1.17441 30.4601V17.8011C4.45238 17.8011 7.648 18.8276 10.3128 20.7365L18.3573 26.499" stroke="#03045E" stroke-miterlimit="10" stroke-linejoin="round"/>
<path d="M1.17438 30.4602H38.8255V35.148H1.17438V30.4602Z" stroke="#03045E" stroke-miterlimit="10" stroke-linejoin="round"/>
<path d="M11.4554 9.82626L19.9555 14.6212L29.6065 8.37829" stroke="#03045E" stroke-miterlimit="10" stroke-linejoin="round"/>
</svg>
