<svg width="40" height="40" viewBox="0 0 40 40" fill="none" xmlns="http://www.w3.org/2000/svg">
<path d="M20.25 19.3C16.17 19.3 14.1833 22.3 13.7 23.8L19.95 29.05L26.65 23.8C26.2167 22.3 24.33 19.3 20.25 19.3Z" fill="#A2D2FF"/>
<path d="M36.6396 7.58355C35.1314 7.58355 33.9089 8.80613 33.9089 10.3143C33.9089 8.80613 32.6863 7.58355 31.1781 7.58355" stroke="#A2D2FF" stroke-miterlimit="10" stroke-linejoin="round" />
<path d="M26.5257 10.3143C25.0175 10.3143 23.7949 11.5369 23.7949 13.0451C23.7949 11.5369 22.5723 10.3143 21.0641 10.3143" stroke="#A2D2FF" stroke-miterlimit="10" stroke-linejoin="round" />
<path d="M5.42015 6.17109H5.31249C4.20663 6.17109 3.31015 7.06758 3.31015 8.17344C3.31015 9.2793 4.20663 10.1758 5.31249 10.1758H10.9064C12.0123 10.1758 12.9087 9.2793 12.9087 8.17344C12.9087 7.06758 12.0123 6.17109 10.9064 6.17109H10.7987C10.7987 4.96469 9.82077 3.98664 8.61429 3.98664H7.6046C6.39812 3.98664 5.42015 4.96469 5.42015 6.17109Z" fill="#A2D2FF" stroke="#03045E" stroke-miterlimit="10" stroke-linejoin="round"  />
<path d="M13.7153 23.6542C14.7638 21.1222 17.2549 19.3505 20.166 19.3505C23.0935 19.3505 25.5944 21.1377 26.6324 23.6925" stroke="#03045E" stroke-miterlimit="10" stroke-linejoin="round" />
<path d="M29.6074 21.3672L19.7676 29.0583L27.6723 36.1134H38.8263V28.4519L29.6074 21.3672Z" stroke="#03045E" stroke-miterlimit="10" stroke-linejoin="round" fill="#ffffff"/>
<path d="M10.117 20.4414L1.17374 29.0086V36.1125L27.6722 36.1135L10.117 20.4414Z" stroke="#03045E" stroke-miterlimit="10" stroke-linejoin="round" fill="#ffffff"/>
</svg>
